<?xml version="1.0" standalone="no"?>
<!DOCTYPE svg PUBLIC "-//W3C//DTD SVG 20010904//EN"
 "http://www.w3.org/TR/2001/REC-SVG-20010904/DTD/svg10.dtd">
<svg version="1.0" xmlns="http://www.w3.org/2000/svg"
 width="188.000000pt" height="188.000000pt" viewBox="0 0 188.000000 188.000000"
 preserveAspectRatio="xMidYMid meet">
<metadata>
Created by potrace 1.11, written by Peter Selinger 2001-2013
</metadata>
<g transform="translate(0.000000,188.000000) scale(0.100000,-0.100000)"
fill="#000000" stroke="none">
<path d="M0 935 l0 -935 935 0 935 0 0 935 0 935 -935 0 -935 0 0 -935z m836
330 l90 -175 93 175 93 175 120 0 c65 0 117 -3 115 -7 -3 -5 -70 -116 -149
-248 l-145 -241 158 -252 158 -253 -126 3 -125 3 -92 172 c-50 95 -93 173 -96
173 -3 0 -47 -79 -98 -175 l-93 -175 -120 0 c-66 0 -118 3 -116 8 3 4 69 112
147 241 78 129 144 240 147 247 3 7 -59 120 -138 251 -78 131 -144 241 -146
246 -2 4 49 7 114 7 l118 0 91 -175z"/>
</g>
</svg>
